<svg width="136" height="143" viewBox="0 0 136 143" fill="none" xmlns="http://www.w3.org/2000/svg">
<path d="M25.3965 10.3031C60.2128 -10.4519 105.15 1.13828 125.766 36.1897C146.382 71.2422 134.87 116.486 100.053 137.242C98.2486 138.317 96.4168 139.306 94.5625 140.209C91.6224 141.641 89.129 137.876 91.0146 135.191C107.183 112.171 109.437 80.8102 94.2461 54.9811C79.0549 29.1532 50.6586 16.0631 22.8367 19.2663C19.592 19.6399 17.5127 15.629 20.1733 13.7223C21.851 12.5199 23.5925 11.3786 25.3965 10.3031Z" fill="#E8EEFC"/>
<path d="M2.74793 45.9495C29.0294 30.283 62.9505 39.0334 78.5123 65.4926C94.0735 91.9521 85.382 126.103 59.1007 141.77C58.6115 142.062 58.1197 142.345 57.6255 142.619C54.7662 144.208 52.2072 140.486 53.9442 137.702C64.6115 120.604 65.6373 98.2468 54.716 79.677C43.7947 61.1078 23.8303 51.2611 3.81066 52.4551C0.550609 52.6495 -1.45892 48.6025 1.2997 46.8428C1.77634 46.5387 2.2591 46.2409 2.74793 45.9495Z" fill="#E8EEFC"/>
</svg>
