<svg width="256" height="256" viewBox="0 0 256 256" fill="none" xmlns="http://www.w3.org/2000/svg">
<rect width="256" height="256" rx="128" fill="#07080A"/>
<path d="M88.2537 75.8433C120.282 57.0219 161.62 67.532 180.585 99.3189C199.55 131.107 188.96 172.137 156.932 190.959C153.034 193.25 149.434 188.197 151.724 184.318C163.71 164.018 164.524 138.04 151.59 116.36C138.655 94.6807 115.313 82.8978 91.6161 83.5675C87.0884 83.6954 84.3562 78.1338 88.2537 75.8433Z" fill="#F2F4FF"/>
<path d="M67.4095 108.171C91.5866 93.9629 122.791 101.899 137.107 125.894C151.422 149.889 143.429 180.859 119.252 195.067C116.309 196.797 113.589 192.979 115.318 190.049C124.364 174.727 124.979 155.121 115.216 138.757C105.453 122.393 87.8347 113.498 69.9477 114.003C66.5292 114.099 64.4668 109.9 67.4095 108.171Z" fill="#F2F4FF"/>
</svg>
